<mxfile host="Electron" modified="2024-02-03T21:48:22.599Z" agent="Mozilla/5.0 (Windows NT 10.0; Win64; x64) AppleWebKit/537.36 (KHTML, like Gecko) draw.io/22.0.2 Chrome/114.0.5735.289 Electron/25.8.4 Safari/537.36" etag="_thaGHdmITljftiscVwL" version="22.0.2" type="device">
  <diagram name="Page-1" id="Giv1lOnHh9bMPiSqejUR">
    <mxGraphModel dx="2103" dy="1726" grid="1" gridSize="10" guides="1" tooltips="1" connect="1" arrows="1" fold="1" page="1" pageScale="1" pageWidth="850" pageHeight="1100" math="0" shadow="0">
      <root>
        <mxCell id="0" />
        <mxCell id="1" parent="0" />
        <mxCell id="YIDH0FeiLAt5y91rJyF4-1" value="Student" style="html=1;overflow=block;blockSpacing=1;whiteSpace=wrap;fontSize=16.7;fontColor=#3a414a;spacing=3.8;strokeColor=#3a414a;strokeOpacity=100;rounded=1;absoluteArcSize=1;arcSize=9;strokeWidth=0.8;lucidId=IEf7eOl.21y2;" parent="1" vertex="1">
          <mxGeometry x="255" y="64" width="265" height="44" as="geometry" />
        </mxCell>
        <mxCell id="YIDH0FeiLAt5y91rJyF4-2" value="ID" style="html=1;overflow=block;blockSpacing=1;whiteSpace=wrap;ellipse;fontSize=16.7;fontColor=#3a414a;fontStyle=4;spacing=3.8;strokeColor=#3a414a;strokeOpacity=100;rounded=1;absoluteArcSize=1;arcSize=9;strokeWidth=0.8;lucidId=KFf7qMIPkb7Z;" parent="1" vertex="1">
          <mxGeometry x="180" y="-10" width="65" height="44" as="geometry" />
        </mxCell>
        <mxCell id="YIDH0FeiLAt5y91rJyF4-3" value="" style="html=1;jettySize=18;whiteSpace=wrap;fontSize=13;strokeColor=#3a414a;strokeOpacity=100;strokeWidth=0.8;rounded=0;startArrow=none;endArrow=none;exitX=0.076;exitY=-0.009;exitPerimeter=0;entryX=0.566;entryY=1.004;entryPerimeter=0;lucidId=iGf7D5S~JVcC;" parent="1" source="YIDH0FeiLAt5y91rJyF4-1" target="YIDH0FeiLAt5y91rJyF4-2" edge="1">
          <mxGeometry width="100" height="100" relative="1" as="geometry">
            <Array as="points" />
          </mxGeometry>
        </mxCell>
        <mxCell id="YIDH0FeiLAt5y91rJyF4-4" value="Name" style="html=1;overflow=block;blockSpacing=1;whiteSpace=wrap;ellipse;fontSize=16.7;fontColor=#3a414a;spacing=3.8;strokeColor=#3a414a;strokeOpacity=100;rounded=1;absoluteArcSize=1;arcSize=9;strokeWidth=0.8;lucidId=BHf7AKtrT11B;" parent="1" vertex="1">
          <mxGeometry x="245" y="-15" width="60" height="35" as="geometry" />
        </mxCell>
        <mxCell id="YIDH0FeiLAt5y91rJyF4-5" value="" style="html=1;jettySize=18;whiteSpace=wrap;fontSize=13;strokeColor=#3a414a;strokeOpacity=100;strokeWidth=0.8;rounded=0;startArrow=none;endArrow=none;exitX=0.267;exitY=-0.009;exitPerimeter=0;entryX=0.566;entryY=1.006;entryPerimeter=0;lucidId=BHf7jw6hv7hq;" parent="1" source="YIDH0FeiLAt5y91rJyF4-1" target="YIDH0FeiLAt5y91rJyF4-4" edge="1">
          <mxGeometry width="100" height="100" relative="1" as="geometry">
            <Array as="points" />
          </mxGeometry>
        </mxCell>
        <mxCell id="YIDH0FeiLAt5y91rJyF4-6" value="DOB" style="html=1;overflow=block;blockSpacing=1;whiteSpace=wrap;ellipse;fontSize=16.7;fontColor=#3a414a;spacing=3.8;strokeColor=#3a414a;strokeOpacity=100;rounded=1;absoluteArcSize=1;arcSize=9;strokeWidth=0.8;lucidId=1Hf7dp13EooO;" parent="1" vertex="1">
          <mxGeometry x="307" y="-15" width="63" height="35" as="geometry" />
        </mxCell>
        <mxCell id="YIDH0FeiLAt5y91rJyF4-7" value="" style="html=1;jettySize=18;whiteSpace=wrap;fontSize=13;strokeColor=#3a414a;strokeOpacity=100;strokeWidth=0.8;rounded=0;startArrow=none;endArrow=none;exitX=0.513;exitY=-0.009;exitPerimeter=0;entryX=0.5;entryY=1.011;entryPerimeter=0;lucidId=1Hf7bAzzXmkd;" parent="1" source="YIDH0FeiLAt5y91rJyF4-1" target="YIDH0FeiLAt5y91rJyF4-6" edge="1">
          <mxGeometry width="100" height="100" relative="1" as="geometry">
            <Array as="points" />
          </mxGeometry>
        </mxCell>
        <mxCell id="YIDH0FeiLAt5y91rJyF4-8" value="Phone" style="html=1;overflow=block;blockSpacing=1;whiteSpace=wrap;ellipse;fontSize=16.7;fontColor=#3a414a;spacing=3.8;strokeColor=#3a414a;strokeOpacity=100;rounded=1;absoluteArcSize=1;arcSize=9;strokeWidth=0.8;lucidId=xIf7XMC2uLQA;" parent="1" vertex="1">
          <mxGeometry x="375" y="-10" width="63" height="35" as="geometry" />
        </mxCell>
        <mxCell id="YIDH0FeiLAt5y91rJyF4-9" value="" style="html=1;jettySize=18;whiteSpace=wrap;fontSize=13;strokeColor=#3a414a;strokeOpacity=100;strokeWidth=0.8;rounded=0;startArrow=none;endArrow=none;entryX=0.566;entryY=1.004;entryPerimeter=0;lucidId=xIf7j.V7JuOM;" parent="1" target="YIDH0FeiLAt5y91rJyF4-8" edge="1">
          <mxGeometry width="100" height="100" relative="1" as="geometry">
            <Array as="points" />
            <mxPoint x="411" y="60" as="sourcePoint" />
          </mxGeometry>
        </mxCell>
        <mxCell id="YIDH0FeiLAt5y91rJyF4-10" value="City" style="html=1;overflow=block;blockSpacing=1;whiteSpace=wrap;ellipse;fontSize=16.7;fontColor=#3a414a;spacing=3.8;strokeColor=#3a414a;strokeOpacity=100;rounded=1;absoluteArcSize=1;arcSize=9;strokeWidth=0.8;lucidId=xJf7n7Fz5nYy;" parent="1" vertex="1">
          <mxGeometry x="120" y="20" width="65" height="44" as="geometry" />
        </mxCell>
        <mxCell id="YIDH0FeiLAt5y91rJyF4-11" value="" style="html=1;jettySize=18;whiteSpace=wrap;fontSize=13;strokeColor=#3a414a;strokeOpacity=100;strokeWidth=0.8;rounded=0;startArrow=none;endArrow=none;exitX=-0.002;exitY=0.5;exitPerimeter=0;entryX=0.838;entryY=0.879;entryPerimeter=0;lucidId=xJf7s-VsNQLj;" parent="1" source="YIDH0FeiLAt5y91rJyF4-1" target="YIDH0FeiLAt5y91rJyF4-10" edge="1">
          <mxGeometry width="100" height="100" relative="1" as="geometry">
            <Array as="points" />
          </mxGeometry>
        </mxCell>
        <mxCell id="YIDH0FeiLAt5y91rJyF4-12" value="Gender" style="html=1;overflow=block;blockSpacing=1;whiteSpace=wrap;ellipse;fontSize=16.7;fontColor=#3a414a;spacing=3.8;strokeColor=#3a414a;strokeOpacity=100;rounded=1;absoluteArcSize=1;arcSize=9;strokeWidth=0.8;lucidId=wKf7c6uQtoMl;" parent="1" vertex="1">
          <mxGeometry x="438" y="-15" width="65" height="44" as="geometry" />
        </mxCell>
        <mxCell id="YIDH0FeiLAt5y91rJyF4-13" value="" style="html=1;jettySize=18;whiteSpace=wrap;fontSize=13;strokeColor=#3a414a;strokeOpacity=100;strokeWidth=0.8;rounded=0;startArrow=none;endArrow=none;entryX=0.566;entryY=1.004;entryPerimeter=0;lucidId=wKf7fZRYhrkq;exitX=0.75;exitY=0;exitDx=0;exitDy=0;" parent="1" source="YIDH0FeiLAt5y91rJyF4-1" target="YIDH0FeiLAt5y91rJyF4-12" edge="1">
          <mxGeometry width="100" height="100" relative="1" as="geometry">
            <Array as="points" />
            <mxPoint x="460" y="60" as="sourcePoint" />
          </mxGeometry>
        </mxCell>
        <mxCell id="YIDH0FeiLAt5y91rJyF4-14" value="Teacher" style="html=1;overflow=block;blockSpacing=1;whiteSpace=wrap;fontSize=16.7;fontColor=#3a414a;spacing=3.8;strokeColor=#3a414a;strokeOpacity=100;rounded=1;absoluteArcSize=1;arcSize=9;strokeWidth=0.8;lucidId=WPf7D8qSyDWd;" parent="1" vertex="1">
          <mxGeometry x="240" y="560" width="203" height="44" as="geometry" />
        </mxCell>
        <mxCell id="YIDH0FeiLAt5y91rJyF4-15" value="ID" style="html=1;overflow=block;blockSpacing=1;whiteSpace=wrap;ellipse;fontSize=16.7;fontColor=#3a414a;fontStyle=4;spacing=3.8;strokeColor=#3a414a;strokeOpacity=100;rounded=1;absoluteArcSize=1;arcSize=9;strokeWidth=0.8;lucidId=HQf7P-XzUorb;" parent="1" vertex="1">
          <mxGeometry x="223" y="628" width="61" height="36" as="geometry" />
        </mxCell>
        <mxCell id="YIDH0FeiLAt5y91rJyF4-16" value="Name" style="html=1;overflow=block;blockSpacing=1;whiteSpace=wrap;ellipse;fontSize=16.7;fontColor=#3a414a;spacing=3.8;strokeColor=#3a414a;strokeOpacity=100;rounded=1;absoluteArcSize=1;arcSize=9;strokeWidth=0.8;lucidId=HQf7pvwZmYfE;" parent="1" vertex="1">
          <mxGeometry x="255" y="672" width="56" height="29" as="geometry" />
        </mxCell>
        <mxCell id="YIDH0FeiLAt5y91rJyF4-17" value="DOB" style="html=1;overflow=block;blockSpacing=1;whiteSpace=wrap;ellipse;fontSize=16.7;fontColor=#3a414a;spacing=3.8;strokeColor=#3a414a;strokeOpacity=100;rounded=1;absoluteArcSize=1;arcSize=9;strokeWidth=0.8;lucidId=HQf7.eBuoyr8;" parent="1" vertex="1">
          <mxGeometry x="311" y="672" width="59" height="28" as="geometry" />
        </mxCell>
        <mxCell id="YIDH0FeiLAt5y91rJyF4-19" value="Degree" style="html=1;overflow=block;blockSpacing=1;whiteSpace=wrap;ellipse;fontSize=16.7;fontColor=#3a414a;spacing=3.8;strokeColor=#3a414a;strokeOpacity=100;rounded=1;absoluteArcSize=1;arcSize=9;strokeWidth=0.8;lucidId=HQf7dB_N0hPl;" parent="1" vertex="1">
          <mxGeometry x="143.5" y="620" width="61" height="36" as="geometry" />
        </mxCell>
        <mxCell id="YIDH0FeiLAt5y91rJyF4-20" value="City" style="html=1;overflow=block;blockSpacing=1;whiteSpace=wrap;ellipse;fontSize=16.7;fontColor=#3a414a;spacing=3.8;strokeColor=#3a414a;strokeOpacity=100;rounded=1;absoluteArcSize=1;arcSize=9;strokeWidth=0.8;lucidId=HQf732VK0Z60;" parent="1" vertex="1">
          <mxGeometry x="450" y="627.82" width="61" height="36" as="geometry" />
        </mxCell>
        <mxCell id="YIDH0FeiLAt5y91rJyF4-21" value="" style="html=1;jettySize=18;whiteSpace=wrap;fontSize=13;strokeColor=#3a414a;strokeOpacity=100;strokeWidth=0.8;rounded=0;startArrow=none;endArrow=none;exitX=0.5;exitY=-0.011;exitPerimeter=0;entryX=0.149;entryY=1.009;entryPerimeter=0;lucidId=gRf7zFcVZ.hq;" parent="1" source="YIDH0FeiLAt5y91rJyF4-15" edge="1">
          <mxGeometry width="100" height="100" relative="1" as="geometry">
            <Array as="points" />
            <mxPoint x="267.24699999999984" y="604.2160000000002" as="targetPoint" />
          </mxGeometry>
        </mxCell>
        <mxCell id="YIDH0FeiLAt5y91rJyF4-22" value="" style="html=1;jettySize=18;whiteSpace=wrap;fontSize=13;strokeColor=#3a414a;strokeOpacity=100;strokeWidth=0.8;rounded=0;startArrow=none;endArrow=none;exitX=0.5;exitY=-0.013;exitPerimeter=0;entryX=0.298;entryY=1.009;entryPerimeter=0;lucidId=JRf7Enyi3p_i;" parent="1" source="YIDH0FeiLAt5y91rJyF4-16" edge="1">
          <mxGeometry width="100" height="100" relative="1" as="geometry">
            <Array as="points" />
            <mxPoint x="297.49400000000014" y="604.2160000000002" as="targetPoint" />
          </mxGeometry>
        </mxCell>
        <mxCell id="YIDH0FeiLAt5y91rJyF4-23" value="" style="html=1;jettySize=18;whiteSpace=wrap;fontSize=13;strokeColor=#3a414a;strokeOpacity=100;strokeWidth=0.8;rounded=0;startArrow=none;endArrow=none;exitX=0.5;exitY=-0.013;exitPerimeter=0;entryX=0.534;entryY=1.009;entryPerimeter=0;lucidId=VRf75HhUP2Vn;" parent="1" source="YIDH0FeiLAt5y91rJyF4-17" edge="1">
          <mxGeometry width="100" height="100" relative="1" as="geometry">
            <Array as="points" />
            <mxPoint x="345.40200000000004" y="604.2160000000002" as="targetPoint" />
          </mxGeometry>
        </mxCell>
        <mxCell id="YIDH0FeiLAt5y91rJyF4-24" value="" style="html=1;jettySize=18;whiteSpace=wrap;fontSize=13;strokeColor=#3a414a;strokeOpacity=100;strokeWidth=0.8;rounded=0;startArrow=none;endArrow=none;entryX=0.794;entryY=1.009;entryPerimeter=0;lucidId=8Rf7f3xnjlh5;" parent="1" target="YIDH0FeiLAt5y91rJyF4-14" edge="1" source="YIDH0FeiLAt5y91rJyF4-129">
          <mxGeometry width="100" height="100" relative="1" as="geometry">
            <Array as="points" />
            <mxPoint x="451.5" y="674.636" as="sourcePoint" />
          </mxGeometry>
        </mxCell>
        <mxCell id="YIDH0FeiLAt5y91rJyF4-25" value="" style="html=1;jettySize=18;whiteSpace=wrap;fontSize=13;strokeColor=#3a414a;strokeOpacity=100;strokeWidth=0.8;rounded=0;startArrow=none;endArrow=none;exitX=0.5;exitY=-0.011;exitPerimeter=0;entryX=0.921;entryY=1.009;entryPerimeter=0;lucidId=pSf7dtOg-co~;" parent="1" source="YIDH0FeiLAt5y91rJyF4-20" target="YIDH0FeiLAt5y91rJyF4-14" edge="1">
          <mxGeometry width="100" height="100" relative="1" as="geometry">
            <Array as="points" />
          </mxGeometry>
        </mxCell>
        <mxCell id="YIDH0FeiLAt5y91rJyF4-26" value="" style="html=1;jettySize=18;whiteSpace=wrap;fontSize=13;strokeColor=#3a414a;strokeOpacity=100;strokeWidth=0.8;rounded=0;startArrow=none;endArrow=none;exitX=0.5;exitY=-0.011;exitPerimeter=0;entryX=0.016;entryY=1.004;entryPerimeter=0;lucidId=cTf77KjBOK~K;" parent="1" source="YIDH0FeiLAt5y91rJyF4-19" edge="1">
          <mxGeometry width="100" height="100" relative="1" as="geometry">
            <Array as="points" />
            <mxPoint x="240.24800000000005" y="603.996" as="targetPoint" />
          </mxGeometry>
        </mxCell>
        <mxCell id="wCs8_2-99c4EfU9t50Mr-26" style="edgeStyle=orthogonalEdgeStyle;rounded=0;orthogonalLoop=1;jettySize=auto;html=1;exitX=1;exitY=0.75;exitDx=0;exitDy=0;entryX=0;entryY=0.5;entryDx=0;entryDy=0;" edge="1" parent="1" source="YIDH0FeiLAt5y91rJyF4-27" target="wCs8_2-99c4EfU9t50Mr-24">
          <mxGeometry relative="1" as="geometry" />
        </mxCell>
        <mxCell id="YIDH0FeiLAt5y91rJyF4-27" value="Department" style="html=1;overflow=block;blockSpacing=1;whiteSpace=wrap;fontSize=16.7;fontColor=#3a414a;spacing=3.8;strokeColor=#3a414a;strokeOpacity=100;rounded=1;absoluteArcSize=1;arcSize=9;strokeWidth=0.8;lucidId=5Wf7W816AiYg;" parent="1" vertex="1">
          <mxGeometry x="178" y="346" width="159" height="34" as="geometry" />
        </mxCell>
        <mxCell id="YIDH0FeiLAt5y91rJyF4-28" value="Name" style="html=1;overflow=block;blockSpacing=1;whiteSpace=wrap;ellipse;fontSize=16.7;fontColor=#3a414a;spacing=3.8;strokeColor=#3a414a;strokeOpacity=100;rounded=1;absoluteArcSize=1;arcSize=9;strokeWidth=0.8;lucidId=9Xf7Rk1qzl-H;" parent="1" vertex="1">
          <mxGeometry x="150" y="289" width="48" height="22" as="geometry" />
        </mxCell>
        <mxCell id="YIDH0FeiLAt5y91rJyF4-29" value="ID" style="html=1;overflow=block;blockSpacing=1;whiteSpace=wrap;ellipse;fontSize=16.7;fontColor=#3a414a;fontStyle=4;spacing=3.8;strokeColor=#3a414a;strokeOpacity=100;rounded=1;absoluteArcSize=1;arcSize=9;strokeWidth=0.8;lucidId=9Xf7CT6YBrtN;" parent="1" vertex="1">
          <mxGeometry x="206" y="283" width="50" height="28" as="geometry" />
        </mxCell>
        <mxCell id="YIDH0FeiLAt5y91rJyF4-30" value="" style="html=1;jettySize=18;whiteSpace=wrap;fontSize=13;strokeColor=#3a414a;strokeOpacity=100;strokeWidth=0.8;rounded=0;startArrow=none;endArrow=none;exitX=0.5;exitY=1.013;exitPerimeter=0;entryX=0.425;entryY=-0.011;entryPerimeter=0;lucidId=jYf7Ei.lRKco;" parent="1" source="YIDH0FeiLAt5y91rJyF4-29" target="YIDH0FeiLAt5y91rJyF4-27" edge="1">
          <mxGeometry width="100" height="100" relative="1" as="geometry">
            <Array as="points" />
          </mxGeometry>
        </mxCell>
        <mxCell id="YIDH0FeiLAt5y91rJyF4-31" value="" style="html=1;jettySize=18;whiteSpace=wrap;fontSize=13;strokeColor=#3a414a;strokeOpacity=100;strokeWidth=0.8;rounded=0;startArrow=none;endArrow=none;exitX=0.5;exitY=1.017;exitPerimeter=0;entryX=0.149;entryY=-0.011;entryPerimeter=0;lucidId=DYf78cueYYFq;" parent="1" source="YIDH0FeiLAt5y91rJyF4-28" target="YIDH0FeiLAt5y91rJyF4-27" edge="1">
          <mxGeometry width="100" height="100" relative="1" as="geometry">
            <Array as="points" />
          </mxGeometry>
        </mxCell>
        <mxCell id="YIDH0FeiLAt5y91rJyF4-32" value="Faculty" style="html=1;overflow=block;blockSpacing=1;whiteSpace=wrap;fontSize=16.7;fontColor=#3a414a;spacing=3.8;strokeColor=#3a414a;strokeOpacity=100;rounded=1;absoluteArcSize=1;arcSize=9;strokeWidth=0.8;lucidId=a0f7eU-uiSEi;" parent="1" vertex="1">
          <mxGeometry x="-147" y="346.5" width="159" height="34" as="geometry" />
        </mxCell>
        <mxCell id="YIDH0FeiLAt5y91rJyF4-33" value="Name" style="html=1;overflow=block;blockSpacing=1;whiteSpace=wrap;ellipse;fontSize=16.7;fontColor=#3a414a;spacing=3.8;strokeColor=#3a414a;strokeOpacity=100;rounded=1;absoluteArcSize=1;arcSize=9;strokeWidth=0.8;lucidId=a0f73.M6.c1g;" parent="1" vertex="1">
          <mxGeometry x="-190" y="287" width="48" height="22" as="geometry" />
        </mxCell>
        <mxCell id="YIDH0FeiLAt5y91rJyF4-34" value="Id" style="html=1;overflow=block;blockSpacing=1;whiteSpace=wrap;ellipse;fontSize=16.7;fontColor=#3a414a;fontStyle=4;spacing=3.8;strokeColor=#3a414a;strokeOpacity=100;rounded=1;absoluteArcSize=1;arcSize=9;strokeWidth=0.8;lucidId=a0f7jYyiGleh;" parent="1" vertex="1">
          <mxGeometry x="-134" y="281" width="50" height="28" as="geometry" />
        </mxCell>
        <mxCell id="YIDH0FeiLAt5y91rJyF4-35" value="" style="html=1;jettySize=18;whiteSpace=wrap;fontSize=13;strokeColor=#3a414a;strokeOpacity=100;strokeWidth=0.8;rounded=0;startArrow=none;endArrow=none;exitX=0.5;exitY=1.013;exitPerimeter=0;entryX=0.325;entryY=-0.011;entryPerimeter=0;lucidId=a0f7HpuL~5eB;" parent="1" source="YIDH0FeiLAt5y91rJyF4-34" target="YIDH0FeiLAt5y91rJyF4-32" edge="1">
          <mxGeometry width="100" height="100" relative="1" as="geometry">
            <Array as="points" />
          </mxGeometry>
        </mxCell>
        <mxCell id="YIDH0FeiLAt5y91rJyF4-36" value="" style="html=1;jettySize=18;whiteSpace=wrap;fontSize=13;strokeColor=#3a414a;strokeOpacity=100;strokeWidth=0.8;rounded=0;startArrow=none;endArrow=none;exitX=0.5;exitY=1.017;exitPerimeter=0;entryX=0.079;entryY=-0.011;entryPerimeter=0;lucidId=a0f7bY6TkrmG;" parent="1" source="YIDH0FeiLAt5y91rJyF4-33" target="YIDH0FeiLAt5y91rJyF4-32" edge="1">
          <mxGeometry width="100" height="100" relative="1" as="geometry">
            <Array as="points" />
          </mxGeometry>
        </mxCell>
        <mxCell id="YIDH0FeiLAt5y91rJyF4-37" value="Courses" style="html=1;overflow=block;blockSpacing=1;whiteSpace=wrap;fontSize=16.7;fontColor=#3a414a;spacing=3.8;strokeColor=#3a414a;strokeOpacity=100;rounded=1;absoluteArcSize=1;arcSize=9;strokeWidth=0.8;lucidId=70f7o6EKnc8D;" parent="1" vertex="1">
          <mxGeometry x="493" y="360" width="159" height="34" as="geometry" />
        </mxCell>
        <mxCell id="YIDH0FeiLAt5y91rJyF4-38" value="Name" style="html=1;overflow=block;blockSpacing=1;whiteSpace=wrap;ellipse;fontSize=16.7;fontColor=#3a414a;spacing=3.8;strokeColor=#3a414a;strokeOpacity=100;rounded=1;absoluteArcSize=1;arcSize=9;strokeWidth=0.8;lucidId=70f7Mf8JOL9h;" parent="1" vertex="1">
          <mxGeometry x="464" y="304" width="48" height="22" as="geometry" />
        </mxCell>
        <mxCell id="YIDH0FeiLAt5y91rJyF4-39" value="ID" style="html=1;overflow=block;blockSpacing=1;whiteSpace=wrap;ellipse;fontSize=16.7;fontColor=#3a414a;fontStyle=4;spacing=3.8;strokeColor=#3a414a;strokeOpacity=100;rounded=1;absoluteArcSize=1;arcSize=9;strokeWidth=0.8;lucidId=70f7k-Sh~VUa;" parent="1" vertex="1">
          <mxGeometry x="519" y="298" width="50" height="28" as="geometry" />
        </mxCell>
        <mxCell id="YIDH0FeiLAt5y91rJyF4-40" value="" style="html=1;jettySize=18;whiteSpace=wrap;fontSize=13;strokeColor=#3a414a;strokeOpacity=100;strokeWidth=0.8;rounded=0;startArrow=none;endArrow=none;exitX=0.5;exitY=1.013;exitPerimeter=0;entryX=0.425;entryY=-0.011;entryPerimeter=0;lucidId=70f7GbRwAy8U;" parent="1" source="YIDH0FeiLAt5y91rJyF4-39" target="YIDH0FeiLAt5y91rJyF4-37" edge="1">
          <mxGeometry width="100" height="100" relative="1" as="geometry">
            <Array as="points" />
          </mxGeometry>
        </mxCell>
        <mxCell id="YIDH0FeiLAt5y91rJyF4-41" value="" style="html=1;jettySize=18;whiteSpace=wrap;fontSize=13;strokeColor=#3a414a;strokeOpacity=100;strokeWidth=0.8;rounded=0;startArrow=none;endArrow=none;exitX=0.5;exitY=1.017;exitPerimeter=0;entryX=0.149;entryY=-0.011;entryPerimeter=0;lucidId=70f7jCiFXZaH;" parent="1" source="YIDH0FeiLAt5y91rJyF4-38" target="YIDH0FeiLAt5y91rJyF4-37" edge="1">
          <mxGeometry width="100" height="100" relative="1" as="geometry">
            <Array as="points" />
          </mxGeometry>
        </mxCell>
        <mxCell id="YIDH0FeiLAt5y91rJyF4-42" value="belongs to" style="html=1;overflow=block;blockSpacing=1;whiteSpace=wrap;rhombus;fontSize=16.7;fontColor=#3a414a;spacing=3.8;strokeColor=#3a414a;strokeOpacity=100;rounded=1;absoluteArcSize=1;arcSize=9;strokeWidth=0.8;lucidId=T2f7qzIkdF_A;" parent="1" vertex="1">
          <mxGeometry x="-100" y="160" width="90" height="75" as="geometry" />
        </mxCell>
        <mxCell id="YIDH0FeiLAt5y91rJyF4-45" value="Register" style="html=1;overflow=block;blockSpacing=1;whiteSpace=wrap;rhombus;fontSize=16.7;fontColor=#3a414a;spacing=3.8;strokeColor=#3a414a;strokeOpacity=100;rounded=1;absoluteArcSize=1;arcSize=9;strokeWidth=0.8;lucidId=D5f7kmPLVYct;" parent="1" vertex="1">
          <mxGeometry x="231" y="180" width="89" height="70" as="geometry" />
        </mxCell>
        <mxCell id="YIDH0FeiLAt5y91rJyF4-48" value="Enroll" style="html=1;overflow=block;blockSpacing=1;whiteSpace=wrap;rhombus;fontSize=16.7;fontColor=#3a414a;spacing=3.8;strokeColor=#3a414a;strokeOpacity=100;rounded=1;absoluteArcSize=1;arcSize=9;strokeWidth=0.8;lucidId=I7f7kx0fvD.i;" parent="1" vertex="1">
          <mxGeometry x="540" y="180" width="90" height="50" as="geometry" />
        </mxCell>
        <mxCell id="YIDH0FeiLAt5y91rJyF4-50" value="Works" style="html=1;overflow=block;blockSpacing=1;whiteSpace=wrap;rhombus;fontSize=16.7;fontColor=#3a414a;spacing=3.8;strokeColor=#3a414a;strokeOpacity=100;rounded=1;absoluteArcSize=1;arcSize=9;strokeWidth=0.8;lucidId=Y9f7WfLWHFd5;" parent="1" vertex="1">
          <mxGeometry x="-70" y="430" width="90" height="75" as="geometry" />
        </mxCell>
        <mxCell id="YIDH0FeiLAt5y91rJyF4-52" value="works" style="html=1;overflow=block;blockSpacing=1;whiteSpace=wrap;rhombus;fontSize=16.7;fontColor=#3a414a;spacing=3.8;strokeColor=#3a414a;strokeOpacity=100;rounded=1;absoluteArcSize=1;arcSize=9;strokeWidth=0.8;lucidId=Y9f7ccefe049;" parent="1" vertex="1">
          <mxGeometry x="211" y="410.5" width="79" height="59.5" as="geometry" />
        </mxCell>
        <mxCell id="YIDH0FeiLAt5y91rJyF4-56" value="teaches" style="html=1;overflow=block;blockSpacing=1;whiteSpace=wrap;rhombus;fontSize=16.7;fontColor=#3a414a;spacing=3.8;strokeColor=#3a414a;strokeOpacity=100;rounded=1;absoluteArcSize=1;arcSize=9;strokeWidth=0.8;lucidId=5.f7s_zdZdzg;" parent="1" vertex="1">
          <mxGeometry x="527.5" y="460" width="90" height="75" as="geometry" />
        </mxCell>
        <mxCell id="YIDH0FeiLAt5y91rJyF4-60" value="" style="endArrow=none;html=1;rounded=0;exitX=0.5;exitY=0;exitDx=0;exitDy=0;entryX=0.5;entryY=1;entryDx=0;entryDy=0;" parent="1" source="YIDH0FeiLAt5y91rJyF4-56" target="YIDH0FeiLAt5y91rJyF4-37" edge="1">
          <mxGeometry width="50" height="50" relative="1" as="geometry">
            <mxPoint x="400" y="470" as="sourcePoint" />
            <mxPoint x="573" y="400" as="targetPoint" />
          </mxGeometry>
        </mxCell>
        <mxCell id="YIDH0FeiLAt5y91rJyF4-61" value="" style="endArrow=none;html=1;rounded=0;entryX=0.5;entryY=1;entryDx=0;entryDy=0;exitX=1;exitY=0.5;exitDx=0;exitDy=0;edgeStyle=orthogonalEdgeStyle;" parent="1" source="YIDH0FeiLAt5y91rJyF4-14" target="YIDH0FeiLAt5y91rJyF4-56" edge="1">
          <mxGeometry width="50" height="50" relative="1" as="geometry">
            <mxPoint x="400" y="470" as="sourcePoint" />
            <mxPoint x="450" y="420" as="targetPoint" />
          </mxGeometry>
        </mxCell>
        <mxCell id="YIDH0FeiLAt5y91rJyF4-62" value="" style="endArrow=none;html=1;rounded=0;exitX=0.5;exitY=0;exitDx=0;exitDy=0;entryX=0.447;entryY=1.059;entryDx=0;entryDy=0;entryPerimeter=0;" parent="1" source="YIDH0FeiLAt5y91rJyF4-52" target="YIDH0FeiLAt5y91rJyF4-27" edge="1">
          <mxGeometry width="50" height="50" relative="1" as="geometry">
            <mxPoint x="400" y="469" as="sourcePoint" />
            <mxPoint x="271" y="380" as="targetPoint" />
          </mxGeometry>
        </mxCell>
        <mxCell id="YIDH0FeiLAt5y91rJyF4-63" value="has" style="rhombus;whiteSpace=wrap;html=1;" parent="1" vertex="1">
          <mxGeometry x="60" y="333" width="60" height="61" as="geometry" />
        </mxCell>
        <mxCell id="YIDH0FeiLAt5y91rJyF4-65" value="" style="endArrow=none;html=1;rounded=0;entryX=0;entryY=0.5;entryDx=0;entryDy=0;exitX=1;exitY=0.5;exitDx=0;exitDy=0;" parent="1" source="YIDH0FeiLAt5y91rJyF4-63" target="YIDH0FeiLAt5y91rJyF4-27" edge="1">
          <mxGeometry width="50" height="50" relative="1" as="geometry">
            <mxPoint x="128" y="376" as="sourcePoint" />
            <mxPoint x="178" y="326" as="targetPoint" />
          </mxGeometry>
        </mxCell>
        <mxCell id="YIDH0FeiLAt5y91rJyF4-66" value="" style="endArrow=none;html=1;rounded=0;exitX=1;exitY=0.5;exitDx=0;exitDy=0;entryX=0;entryY=0.5;entryDx=0;entryDy=0;" parent="1" source="YIDH0FeiLAt5y91rJyF4-32" target="YIDH0FeiLAt5y91rJyF4-63" edge="1">
          <mxGeometry width="50" height="50" relative="1" as="geometry">
            <mxPoint x="240" y="370" as="sourcePoint" />
            <mxPoint x="290" y="320" as="targetPoint" />
          </mxGeometry>
        </mxCell>
        <mxCell id="YIDH0FeiLAt5y91rJyF4-71" value="&lt;font style=&quot;font-size: 18px;&quot;&gt;M&lt;/font&gt;" style="text;html=1;align=center;verticalAlign=middle;resizable=0;points=[];autosize=1;strokeColor=none;fillColor=none;" parent="1" vertex="1">
          <mxGeometry x="276" y="108" width="40" height="40" as="geometry" />
        </mxCell>
        <mxCell id="YIDH0FeiLAt5y91rJyF4-72" value="&lt;font style=&quot;font-size: 24px;&quot;&gt;1&lt;/font&gt;" style="text;html=1;align=center;verticalAlign=middle;resizable=0;points=[];autosize=1;strokeColor=none;fillColor=none;rotation=0;" parent="1" vertex="1">
          <mxGeometry x="-60" y="306" width="40" height="40" as="geometry" />
        </mxCell>
        <mxCell id="YIDH0FeiLAt5y91rJyF4-73" value="&lt;font style=&quot;font-size: 18px;&quot;&gt;M&lt;/font&gt;" style="text;html=1;align=center;verticalAlign=middle;resizable=0;points=[];autosize=1;strokeColor=none;fillColor=none;" parent="1" vertex="1">
          <mxGeometry x="215" y="108" width="40" height="40" as="geometry" />
        </mxCell>
        <mxCell id="YIDH0FeiLAt5y91rJyF4-76" value="&lt;font style=&quot;font-size: 18px;&quot;&gt;M&lt;/font&gt;" style="text;html=1;align=center;verticalAlign=middle;resizable=0;points=[];autosize=1;strokeColor=none;fillColor=none;" parent="1" vertex="1">
          <mxGeometry x="577.5" y="326" width="40" height="40" as="geometry" />
        </mxCell>
        <mxCell id="YIDH0FeiLAt5y91rJyF4-77" value="&lt;font style=&quot;font-size: 18px;&quot;&gt;M&lt;/font&gt;" style="text;html=1;align=center;verticalAlign=middle;resizable=0;points=[];autosize=1;strokeColor=none;fillColor=none;" parent="1" vertex="1">
          <mxGeometry x="537.5" y="80" width="40" height="40" as="geometry" />
        </mxCell>
        <mxCell id="YIDH0FeiLAt5y91rJyF4-78" value="&lt;font style=&quot;font-size: 18px;&quot;&gt;M&lt;/font&gt;" style="text;html=1;align=center;verticalAlign=middle;resizable=0;points=[];autosize=1;strokeColor=none;fillColor=none;" parent="1" vertex="1">
          <mxGeometry x="441" y="550" width="40" height="40" as="geometry" />
        </mxCell>
        <mxCell id="YIDH0FeiLAt5y91rJyF4-79" value="&lt;font style=&quot;font-size: 18px;&quot;&gt;M&lt;/font&gt;" style="text;html=1;align=center;verticalAlign=middle;resizable=0;points=[];autosize=1;strokeColor=none;fillColor=none;" parent="1" vertex="1">
          <mxGeometry x="537.5" y="390" width="40" height="40" as="geometry" />
        </mxCell>
        <mxCell id="YIDH0FeiLAt5y91rJyF4-80" value="&lt;font style=&quot;font-size: 18px;&quot;&gt;1&lt;/font&gt;" style="text;html=1;align=center;verticalAlign=middle;resizable=0;points=[];autosize=1;strokeColor=none;fillColor=none;" parent="1" vertex="1">
          <mxGeometry x="218" y="380" width="30" height="40" as="geometry" />
        </mxCell>
        <mxCell id="YIDH0FeiLAt5y91rJyF4-82" value="head" style="html=1;overflow=block;blockSpacing=1;whiteSpace=wrap;rhombus;fontSize=16.7;fontColor=#3a414a;spacing=3.8;strokeColor=#3a414a;strokeOpacity=100;rounded=1;absoluteArcSize=1;arcSize=9;strokeWidth=0.8;lucidId=Y9f7ccefe049;" parent="1" vertex="1">
          <mxGeometry x="292" y="410.5" width="79" height="59.5" as="geometry" />
        </mxCell>
        <mxCell id="YIDH0FeiLAt5y91rJyF4-84" value="&lt;font style=&quot;font-size: 18px;&quot;&gt;1&lt;/font&gt;" style="text;html=1;align=center;verticalAlign=middle;resizable=0;points=[];autosize=1;strokeColor=none;fillColor=none;" parent="1" vertex="1">
          <mxGeometry x="323.5" y="380" width="30" height="40" as="geometry" />
        </mxCell>
        <mxCell id="YIDH0FeiLAt5y91rJyF4-85" value="" style="endArrow=none;html=1;rounded=0;" parent="1" edge="1">
          <mxGeometry width="50" height="50" relative="1" as="geometry">
            <mxPoint x="330" y="410" as="sourcePoint" />
            <mxPoint x="330" y="380" as="targetPoint" />
          </mxGeometry>
        </mxCell>
        <mxCell id="YIDH0FeiLAt5y91rJyF4-87" value="&lt;font style=&quot;font-size: 18px;&quot;&gt;1&lt;/font&gt;" style="text;html=1;align=center;verticalAlign=middle;resizable=0;points=[];autosize=1;strokeColor=none;fillColor=none;" parent="1" vertex="1">
          <mxGeometry x="327" y="520" width="30" height="40" as="geometry" />
        </mxCell>
        <mxCell id="YIDH0FeiLAt5y91rJyF4-88" value="&lt;font style=&quot;font-size: 18px;&quot;&gt;M&lt;/font&gt;" style="text;html=1;align=center;verticalAlign=middle;resizable=0;points=[];autosize=1;strokeColor=none;fillColor=none;" parent="1" vertex="1">
          <mxGeometry x="245" y="530" width="40" height="40" as="geometry" />
        </mxCell>
        <mxCell id="YIDH0FeiLAt5y91rJyF4-93" value="" style="html=1;jettySize=18;whiteSpace=wrap;fontSize=13;strokeColor=#3a414a;strokeOpacity=100;strokeWidth=0.8;rounded=0;startArrow=none;endArrow=none;exitX=0.5;exitY=1;entryX=0.425;entryY=-0.011;entryPerimeter=0;lucidId=70f7GbRwAy8U;exitDx=0;exitDy=0;" parent="1" source="YIDH0FeiLAt5y91rJyF4-94" edge="1">
          <mxGeometry width="100" height="100" relative="1" as="geometry">
            <Array as="points" />
            <mxPoint x="644" y="360" as="targetPoint" />
            <mxPoint x="645" y="340.78" as="sourcePoint" />
          </mxGeometry>
        </mxCell>
        <mxCell id="YIDH0FeiLAt5y91rJyF4-94" value="Max mark" style="html=1;overflow=block;blockSpacing=1;whiteSpace=wrap;ellipse;fontSize=16.7;fontColor=#3a414a;spacing=3.8;strokeColor=#3a414a;strokeOpacity=100;rounded=1;absoluteArcSize=1;arcSize=9;strokeWidth=0.8;lucidId=70f7Mf8JOL9h;" parent="1" vertex="1">
          <mxGeometry x="617.5" y="300" width="82.5" height="40" as="geometry" />
        </mxCell>
        <mxCell id="YIDH0FeiLAt5y91rJyF4-101" value="Semester" style="html=1;overflow=block;blockSpacing=1;whiteSpace=wrap;ellipse;fontSize=16.7;fontColor=#3a414a;spacing=3.8;strokeColor=#3a414a;strokeOpacity=100;rounded=1;absoluteArcSize=1;arcSize=9;strokeWidth=0.8;lucidId=wKf7c6uQtoMl;" parent="1" vertex="1">
          <mxGeometry x="657.5" y="130" width="82.5" height="40" as="geometry" />
        </mxCell>
        <mxCell id="YIDH0FeiLAt5y91rJyF4-102" value="" style="endArrow=none;html=1;rounded=0;exitX=0.054;exitY=0.727;exitDx=0;exitDy=0;entryX=1;entryY=0.5;entryDx=0;entryDy=0;exitPerimeter=0;" parent="1" source="YIDH0FeiLAt5y91rJyF4-101" target="YIDH0FeiLAt5y91rJyF4-48" edge="1">
          <mxGeometry width="50" height="50" relative="1" as="geometry">
            <mxPoint x="690" y="221" as="sourcePoint" />
            <mxPoint x="617.5" y="152" as="targetPoint" />
          </mxGeometry>
        </mxCell>
        <mxCell id="YIDH0FeiLAt5y91rJyF4-103" value="mark" style="html=1;overflow=block;blockSpacing=1;whiteSpace=wrap;ellipse;fontSize=16.7;fontColor=#3a414a;spacing=3.8;strokeColor=#3a414a;strokeOpacity=100;rounded=1;absoluteArcSize=1;arcSize=9;strokeWidth=0.8;lucidId=wKf7c6uQtoMl;" parent="1" vertex="1">
          <mxGeometry x="666.25" y="237" width="65" height="44" as="geometry" />
        </mxCell>
        <mxCell id="YIDH0FeiLAt5y91rJyF4-104" value="" style="endArrow=none;html=1;rounded=0;exitX=0;exitY=0;exitDx=0;exitDy=0;entryX=1;entryY=0.5;entryDx=0;entryDy=0;" parent="1" source="YIDH0FeiLAt5y91rJyF4-103" target="YIDH0FeiLAt5y91rJyF4-48" edge="1">
          <mxGeometry width="50" height="50" relative="1" as="geometry">
            <mxPoint x="680" y="215" as="sourcePoint" />
            <mxPoint x="640" y="215" as="targetPoint" />
          </mxGeometry>
        </mxCell>
        <mxCell id="YIDH0FeiLAt5y91rJyF4-105" value="Year" style="html=1;overflow=block;blockSpacing=1;whiteSpace=wrap;ellipse;fontSize=16.7;fontColor=#3a414a;spacing=3.8;strokeColor=#3a414a;strokeOpacity=100;rounded=1;absoluteArcSize=1;arcSize=9;strokeWidth=0.8;lucidId=wKf7c6uQtoMl;" parent="1" vertex="1">
          <mxGeometry x="447" y="183" width="65" height="44" as="geometry" />
        </mxCell>
        <mxCell id="YIDH0FeiLAt5y91rJyF4-106" value="" style="endArrow=none;html=1;rounded=0;exitX=1;exitY=0.5;exitDx=0;exitDy=0;entryX=0;entryY=0.5;entryDx=0;entryDy=0;" parent="1" source="YIDH0FeiLAt5y91rJyF4-105" target="YIDH0FeiLAt5y91rJyF4-48" edge="1">
          <mxGeometry width="50" height="50" relative="1" as="geometry">
            <mxPoint x="672" y="169" as="sourcePoint" />
            <mxPoint x="640" y="215" as="targetPoint" />
          </mxGeometry>
        </mxCell>
        <mxCell id="YIDH0FeiLAt5y91rJyF4-108" value="" style="endArrow=none;html=1;rounded=0;entryX=0.5;entryY=0;entryDx=0;entryDy=0;exitX=1;exitY=0.5;exitDx=0;exitDy=0;edgeStyle=orthogonalEdgeStyle;" parent="1" source="YIDH0FeiLAt5y91rJyF4-1" target="YIDH0FeiLAt5y91rJyF4-48" edge="1">
          <mxGeometry width="50" height="50" relative="1" as="geometry">
            <mxPoint x="500" y="260" as="sourcePoint" />
            <mxPoint x="550" y="210" as="targetPoint" />
          </mxGeometry>
        </mxCell>
        <mxCell id="YIDH0FeiLAt5y91rJyF4-109" value="" style="endArrow=none;html=1;rounded=0;exitX=0.5;exitY=1;exitDx=0;exitDy=0;edgeStyle=orthogonalEdgeStyle;" parent="1" source="YIDH0FeiLAt5y91rJyF4-48" edge="1">
          <mxGeometry width="50" height="50" relative="1" as="geometry">
            <mxPoint x="464" y="239" as="sourcePoint" />
            <mxPoint x="585" y="360" as="targetPoint" />
          </mxGeometry>
        </mxCell>
        <mxCell id="YIDH0FeiLAt5y91rJyF4-111" value="&lt;font style=&quot;font-size: 24px;&quot;&gt;1&lt;/font&gt;" style="text;html=1;align=center;verticalAlign=middle;resizable=0;points=[];autosize=1;strokeColor=none;fillColor=none;rotation=0;" parent="1" vertex="1">
          <mxGeometry x="-30" y="380.5" width="40" height="40" as="geometry" />
        </mxCell>
        <mxCell id="YIDH0FeiLAt5y91rJyF4-112" value="&lt;font style=&quot;font-size: 18px;&quot;&gt;M&lt;/font&gt;" style="text;html=1;align=center;verticalAlign=middle;resizable=0;points=[];autosize=1;strokeColor=none;fillColor=none;" parent="1" vertex="1">
          <mxGeometry x="200" y="550" width="40" height="40" as="geometry" />
        </mxCell>
        <mxCell id="YIDH0FeiLAt5y91rJyF4-114" value="&lt;font style=&quot;font-size: 18px;&quot;&gt;M&lt;/font&gt;" style="text;html=1;align=center;verticalAlign=middle;resizable=0;points=[];autosize=1;strokeColor=none;fillColor=none;" parent="1" vertex="1">
          <mxGeometry x="138" y="333" width="40" height="40" as="geometry" />
        </mxCell>
        <mxCell id="YIDH0FeiLAt5y91rJyF4-115" value="&lt;font style=&quot;font-size: 24px;&quot;&gt;1&lt;/font&gt;" style="text;html=1;align=center;verticalAlign=middle;resizable=0;points=[];autosize=1;strokeColor=none;fillColor=none;rotation=0;" parent="1" vertex="1">
          <mxGeometry x="10" y="333" width="40" height="40" as="geometry" />
        </mxCell>
        <mxCell id="YIDH0FeiLAt5y91rJyF4-116" value="&lt;font style=&quot;font-size: 24px;&quot;&gt;1&lt;/font&gt;" style="text;html=1;align=center;verticalAlign=middle;resizable=0;points=[];autosize=1;strokeColor=none;fillColor=none;rotation=0;" parent="1" vertex="1">
          <mxGeometry x="267" y="311" width="40" height="40" as="geometry" />
        </mxCell>
        <mxCell id="YIDH0FeiLAt5y91rJyF4-117" value="&lt;font style=&quot;font-size: 18px;&quot;&gt;M&lt;/font&gt;" style="text;html=1;align=center;verticalAlign=middle;resizable=0;points=[];autosize=1;strokeColor=none;fillColor=none;" parent="1" vertex="1">
          <mxGeometry x="378" y="530" width="40" height="40" as="geometry" />
        </mxCell>
        <mxCell id="YIDH0FeiLAt5y91rJyF4-121" value="" style="endArrow=none;html=1;rounded=0;entryX=0.5;entryY=1;entryDx=0;entryDy=0;" parent="1" target="YIDH0FeiLAt5y91rJyF4-45" edge="1">
          <mxGeometry width="50" height="50" relative="1" as="geometry">
            <mxPoint x="276" y="350" as="sourcePoint" />
            <mxPoint x="390" y="290" as="targetPoint" />
          </mxGeometry>
        </mxCell>
        <mxCell id="YIDH0FeiLAt5y91rJyF4-122" value="" style="endArrow=none;html=1;rounded=0;entryX=0.05;entryY=0.05;entryDx=0;entryDy=0;entryPerimeter=0;" parent="1" source="YIDH0FeiLAt5y91rJyF4-45" target="YIDH0FeiLAt5y91rJyF4-71" edge="1">
          <mxGeometry width="50" height="50" relative="1" as="geometry">
            <mxPoint x="340" y="340" as="sourcePoint" />
            <mxPoint x="390" y="290" as="targetPoint" />
          </mxGeometry>
        </mxCell>
        <mxCell id="YIDH0FeiLAt5y91rJyF4-123" value="" style="endArrow=none;html=1;rounded=0;entryX=0;entryY=0.75;entryDx=0;entryDy=0;exitX=0.5;exitY=0;exitDx=0;exitDy=0;edgeStyle=orthogonalEdgeStyle;" parent="1" source="YIDH0FeiLAt5y91rJyF4-42" target="YIDH0FeiLAt5y91rJyF4-1" edge="1">
          <mxGeometry width="50" height="50" relative="1" as="geometry">
            <mxPoint x="340" y="340" as="sourcePoint" />
            <mxPoint x="390" y="290" as="targetPoint" />
          </mxGeometry>
        </mxCell>
        <mxCell id="YIDH0FeiLAt5y91rJyF4-124" value="" style="endArrow=none;html=1;rounded=0;entryX=0.5;entryY=1;entryDx=0;entryDy=0;exitX=0.1;exitY=0.975;exitDx=0;exitDy=0;exitPerimeter=0;" parent="1" source="YIDH0FeiLAt5y91rJyF4-72" target="YIDH0FeiLAt5y91rJyF4-42" edge="1">
          <mxGeometry width="50" height="50" relative="1" as="geometry">
            <mxPoint x="340" y="340" as="sourcePoint" />
            <mxPoint x="390" y="290" as="targetPoint" />
          </mxGeometry>
        </mxCell>
        <mxCell id="YIDH0FeiLAt5y91rJyF4-125" value="" style="endArrow=none;html=1;rounded=0;entryX=0.5;entryY=1;entryDx=0;entryDy=0;exitX=0.15;exitY=1;exitDx=0;exitDy=0;exitPerimeter=0;" parent="1" source="YIDH0FeiLAt5y91rJyF4-87" target="YIDH0FeiLAt5y91rJyF4-82" edge="1">
          <mxGeometry width="50" height="50" relative="1" as="geometry">
            <mxPoint x="340" y="520" as="sourcePoint" />
            <mxPoint x="390" y="470" as="targetPoint" />
          </mxGeometry>
        </mxCell>
        <mxCell id="YIDH0FeiLAt5y91rJyF4-126" value="" style="endArrow=none;html=1;rounded=0;entryX=0.5;entryY=1;entryDx=0;entryDy=0;exitX=0.049;exitY=-0.091;exitDx=0;exitDy=0;exitPerimeter=0;" parent="1" source="YIDH0FeiLAt5y91rJyF4-14" target="YIDH0FeiLAt5y91rJyF4-52" edge="1">
          <mxGeometry width="50" height="50" relative="1" as="geometry">
            <mxPoint x="342" y="570" as="sourcePoint" />
            <mxPoint x="342" y="480" as="targetPoint" />
          </mxGeometry>
        </mxCell>
        <mxCell id="YIDH0FeiLAt5y91rJyF4-127" value="" style="endArrow=none;html=1;rounded=0;entryX=0.767;entryY=0.985;entryDx=0;entryDy=0;exitX=0.5;exitY=0;exitDx=0;exitDy=0;entryPerimeter=0;" parent="1" source="YIDH0FeiLAt5y91rJyF4-50" target="YIDH0FeiLAt5y91rJyF4-32" edge="1">
          <mxGeometry width="50" height="50" relative="1" as="geometry">
            <mxPoint x="340" y="520" as="sourcePoint" />
            <mxPoint x="390" y="470" as="targetPoint" />
          </mxGeometry>
        </mxCell>
        <mxCell id="YIDH0FeiLAt5y91rJyF4-128" value="" style="endArrow=none;html=1;rounded=0;entryX=0.5;entryY=1;entryDx=0;entryDy=0;exitX=0;exitY=0.75;exitDx=0;exitDy=0;edgeStyle=orthogonalEdgeStyle;" parent="1" source="YIDH0FeiLAt5y91rJyF4-14" target="YIDH0FeiLAt5y91rJyF4-50" edge="1">
          <mxGeometry width="50" height="50" relative="1" as="geometry">
            <mxPoint x="340" y="520" as="sourcePoint" />
            <mxPoint x="390" y="470" as="targetPoint" />
            <Array as="points">
              <mxPoint x="240" y="585" />
              <mxPoint x="-25" y="585" />
            </Array>
          </mxGeometry>
        </mxCell>
        <mxCell id="YIDH0FeiLAt5y91rJyF4-129" value="Phone" style="ellipse;whiteSpace=wrap;html=1;" parent="1" vertex="1">
          <mxGeometry x="370" y="667.5" width="50" height="22.5" as="geometry" />
        </mxCell>
        <mxCell id="YIDH0FeiLAt5y91rJyF4-150" value="Credits" style="html=1;overflow=block;blockSpacing=1;whiteSpace=wrap;ellipse;fontSize=16.7;fontColor=#3a414a;spacing=3.8;strokeColor=#3a414a;strokeOpacity=100;rounded=1;absoluteArcSize=1;arcSize=9;strokeWidth=0.8;lucidId=70f7Mf8JOL9h;" parent="1" vertex="1">
          <mxGeometry x="690" y="363.5" width="70" height="26.5" as="geometry" />
        </mxCell>
        <mxCell id="YIDH0FeiLAt5y91rJyF4-151" value="" style="endArrow=none;html=1;rounded=0;entryX=0;entryY=0.5;entryDx=0;entryDy=0;exitX=1;exitY=0.5;exitDx=0;exitDy=0;" parent="1" source="YIDH0FeiLAt5y91rJyF4-37" target="YIDH0FeiLAt5y91rJyF4-150" edge="1">
          <mxGeometry width="50" height="50" relative="1" as="geometry">
            <mxPoint x="240" y="430" as="sourcePoint" />
            <mxPoint x="290" y="380" as="targetPoint" />
          </mxGeometry>
        </mxCell>
        <mxCell id="wCs8_2-99c4EfU9t50Mr-1" value="Email" style="html=1;overflow=block;blockSpacing=1;whiteSpace=wrap;ellipse;fontSize=16.7;fontColor=#3a414a;spacing=3.8;strokeColor=#3a414a;strokeOpacity=100;rounded=1;absoluteArcSize=1;arcSize=9;strokeWidth=0.8;lucidId=wKf7c6uQtoMl;" vertex="1" parent="1">
          <mxGeometry x="505" y="-9" width="65" height="39" as="geometry" />
        </mxCell>
        <mxCell id="wCs8_2-99c4EfU9t50Mr-4" value="" style="html=1;jettySize=18;whiteSpace=wrap;fontSize=13;strokeColor=#3a414a;strokeOpacity=100;strokeWidth=0.8;rounded=0;startArrow=none;endArrow=none;entryX=0.307;entryY=1.042;entryPerimeter=0;lucidId=wKf7fZRYhrkq;entryDx=0;entryDy=0;" edge="1" parent="1" target="wCs8_2-99c4EfU9t50Mr-1">
          <mxGeometry width="100" height="100" relative="1" as="geometry">
            <Array as="points" />
            <mxPoint x="500" y="60" as="sourcePoint" />
            <mxPoint x="470" y="45" as="targetPoint" />
          </mxGeometry>
        </mxCell>
        <mxCell id="wCs8_2-99c4EfU9t50Mr-5" value="Password" style="html=1;overflow=block;blockSpacing=1;whiteSpace=wrap;ellipse;fontSize=16.7;fontColor=#3a414a;spacing=3.8;strokeColor=#3a414a;strokeOpacity=100;rounded=1;absoluteArcSize=1;arcSize=9;strokeWidth=0.8;lucidId=wKf7c6uQtoMl;" vertex="1" parent="1">
          <mxGeometry x="547.5" y="20" width="82.5" height="39" as="geometry" />
        </mxCell>
        <mxCell id="wCs8_2-99c4EfU9t50Mr-6" value="" style="html=1;jettySize=18;whiteSpace=wrap;fontSize=13;strokeColor=#3a414a;strokeOpacity=100;strokeWidth=0.8;rounded=0;startArrow=none;endArrow=none;entryX=0.307;entryY=1.042;entryPerimeter=0;lucidId=wKf7fZRYhrkq;entryDx=0;entryDy=0;exitX=1;exitY=0;exitDx=0;exitDy=0;" edge="1" parent="1" target="wCs8_2-99c4EfU9t50Mr-5" source="YIDH0FeiLAt5y91rJyF4-1">
          <mxGeometry width="100" height="100" relative="1" as="geometry">
            <Array as="points" />
            <mxPoint x="532.5" y="99" as="sourcePoint" />
            <mxPoint x="512.5" y="74" as="targetPoint" />
          </mxGeometry>
        </mxCell>
        <mxCell id="wCs8_2-99c4EfU9t50Mr-9" value="" style="html=1;jettySize=18;whiteSpace=wrap;fontSize=13;strokeColor=#3a414a;strokeOpacity=100;strokeWidth=0.8;rounded=0;startArrow=none;endArrow=none;exitX=0.5;exitY=-0.013;exitPerimeter=0;lucidId=JRf7Enyi3p_i;entryX=0.847;entryY=0.987;entryDx=0;entryDy=0;entryPerimeter=0;" edge="1" source="wCs8_2-99c4EfU9t50Mr-10" parent="1" target="YIDH0FeiLAt5y91rJyF4-14">
          <mxGeometry width="100" height="100" relative="1" as="geometry">
            <Array as="points" />
            <mxPoint x="420" y="608" as="targetPoint" />
          </mxGeometry>
        </mxCell>
        <mxCell id="wCs8_2-99c4EfU9t50Mr-10" value="Salary" style="html=1;overflow=block;blockSpacing=1;whiteSpace=wrap;ellipse;fontSize=16.7;fontColor=#3a414a;spacing=3.8;strokeColor=#3a414a;strokeOpacity=100;rounded=1;absoluteArcSize=1;arcSize=9;strokeWidth=0.8;lucidId=HQf7pvwZmYfE;" vertex="1" parent="1">
          <mxGeometry x="408" y="690" width="56" height="29" as="geometry" />
        </mxCell>
        <mxCell id="wCs8_2-99c4EfU9t50Mr-11" value="Email" style="html=1;overflow=block;blockSpacing=1;whiteSpace=wrap;ellipse;fontSize=16.7;fontColor=#3a414a;spacing=3.8;strokeColor=#3a414a;strokeOpacity=100;rounded=1;absoluteArcSize=1;arcSize=9;strokeWidth=0.8;lucidId=HQf7dB_N0hPl;" vertex="1" parent="1">
          <mxGeometry x="162" y="656" width="61" height="36" as="geometry" />
        </mxCell>
        <mxCell id="wCs8_2-99c4EfU9t50Mr-12" value="" style="html=1;jettySize=18;whiteSpace=wrap;fontSize=13;strokeColor=#3a414a;strokeOpacity=100;strokeWidth=0.8;rounded=0;startArrow=none;endArrow=none;exitX=0.685;exitY=0.042;exitPerimeter=0;entryX=0.065;entryY=0.96;entryPerimeter=0;lucidId=cTf77KjBOK~K;entryDx=0;entryDy=0;exitDx=0;exitDy=0;" edge="1" parent="1" source="wCs8_2-99c4EfU9t50Mr-11" target="YIDH0FeiLAt5y91rJyF4-14">
          <mxGeometry width="100" height="100" relative="1" as="geometry">
            <Array as="points" />
            <mxPoint x="250.24800000000005" y="613.996" as="targetPoint" />
            <mxPoint x="184" y="630" as="sourcePoint" />
          </mxGeometry>
        </mxCell>
        <mxCell id="wCs8_2-99c4EfU9t50Mr-13" value="" style="html=1;jettySize=18;whiteSpace=wrap;fontSize=13;strokeColor=#3a414a;strokeOpacity=100;strokeWidth=0.8;rounded=0;startArrow=none;endArrow=none;exitX=0;exitY=0.5;lucidId=JRf7Enyi3p_i;entryX=0.917;entryY=0.987;entryDx=0;entryDy=0;entryPerimeter=0;exitDx=0;exitDy=0;" edge="1" parent="1" source="wCs8_2-99c4EfU9t50Mr-14" target="YIDH0FeiLAt5y91rJyF4-14">
          <mxGeometry width="100" height="100" relative="1" as="geometry">
            <Array as="points" />
            <mxPoint x="422" y="613" as="targetPoint" />
            <mxPoint x="446" y="700" as="sourcePoint" />
          </mxGeometry>
        </mxCell>
        <mxCell id="wCs8_2-99c4EfU9t50Mr-14" value="Pass&lt;br&gt;" style="html=1;overflow=block;blockSpacing=1;whiteSpace=wrap;ellipse;fontSize=16.7;fontColor=#3a414a;spacing=3.8;strokeColor=#3a414a;strokeOpacity=100;rounded=1;absoluteArcSize=1;arcSize=9;strokeWidth=0.8;lucidId=HQf732VK0Z60;" vertex="1" parent="1">
          <mxGeometry x="466.5" y="672" width="61" height="36" as="geometry" />
        </mxCell>
        <mxCell id="wCs8_2-99c4EfU9t50Mr-15" value="Admin" style="html=1;overflow=block;blockSpacing=1;whiteSpace=wrap;fontSize=16.7;fontColor=#3a414a;spacing=3.8;strokeColor=#3a414a;strokeOpacity=100;rounded=1;absoluteArcSize=1;arcSize=9;strokeWidth=0.8;lucidId=a0f7eU-uiSEi;" vertex="1" parent="1">
          <mxGeometry x="-490" y="343.5" width="159" height="34" as="geometry" />
        </mxCell>
        <mxCell id="wCs8_2-99c4EfU9t50Mr-16" value="Email" style="html=1;overflow=block;blockSpacing=1;whiteSpace=wrap;ellipse;fontSize=16.7;fontColor=#3a414a;spacing=3.8;strokeColor=#3a414a;strokeOpacity=100;rounded=1;absoluteArcSize=1;arcSize=9;strokeWidth=0.8;lucidId=a0f73.M6.c1g;" vertex="1" parent="1">
          <mxGeometry x="-490" y="286" width="48" height="22" as="geometry" />
        </mxCell>
        <mxCell id="wCs8_2-99c4EfU9t50Mr-18" value="" style="html=1;jettySize=18;whiteSpace=wrap;fontSize=13;strokeColor=#3a414a;strokeOpacity=100;strokeWidth=0.8;rounded=0;startArrow=none;endArrow=none;exitX=0.691;exitY=1.083;exitPerimeter=0;lucidId=a0f7bY6TkrmG;exitDx=0;exitDy=0;entryX=0.25;entryY=0;entryDx=0;entryDy=0;" edge="1" parent="1" source="wCs8_2-99c4EfU9t50Mr-16" target="wCs8_2-99c4EfU9t50Mr-15">
          <mxGeometry width="100" height="100" relative="1" as="geometry">
            <Array as="points" />
            <mxPoint x="-246" y="316" as="sourcePoint" />
            <mxPoint x="-450" y="337" as="targetPoint" />
          </mxGeometry>
        </mxCell>
        <mxCell id="wCs8_2-99c4EfU9t50Mr-19" value="Pass" style="html=1;overflow=block;blockSpacing=1;whiteSpace=wrap;ellipse;fontSize=16.7;fontColor=#3a414a;spacing=3.8;strokeColor=#3a414a;strokeOpacity=100;rounded=1;absoluteArcSize=1;arcSize=9;strokeWidth=0.8;lucidId=a0f73.M6.c1g;" vertex="1" parent="1">
          <mxGeometry x="-430" y="284.5" width="48" height="22" as="geometry" />
        </mxCell>
        <mxCell id="wCs8_2-99c4EfU9t50Mr-20" value="" style="html=1;jettySize=18;whiteSpace=wrap;fontSize=13;strokeColor=#3a414a;strokeOpacity=100;strokeWidth=0.8;rounded=0;startArrow=none;endArrow=none;exitX=0.5;exitY=1.017;exitPerimeter=0;lucidId=a0f7bY6TkrmG;entryX=0.5;entryY=0;entryDx=0;entryDy=0;" edge="1" parent="1" source="wCs8_2-99c4EfU9t50Mr-19" target="wCs8_2-99c4EfU9t50Mr-15">
          <mxGeometry width="100" height="100" relative="1" as="geometry">
            <Array as="points" />
            <mxPoint x="-316" y="340" as="targetPoint" />
          </mxGeometry>
        </mxCell>
        <mxCell id="wCs8_2-99c4EfU9t50Mr-21" value="Manage" style="rhombus;whiteSpace=wrap;html=1;" vertex="1" parent="1">
          <mxGeometry x="-270" y="329" width="60" height="61" as="geometry" />
        </mxCell>
        <mxCell id="wCs8_2-99c4EfU9t50Mr-22" value="" style="endArrow=none;html=1;rounded=0;exitX=1;exitY=0.5;exitDx=0;exitDy=0;" edge="1" parent="1" source="wCs8_2-99c4EfU9t50Mr-21">
          <mxGeometry width="50" height="50" relative="1" as="geometry">
            <mxPoint x="-210" y="350" as="sourcePoint" />
            <mxPoint x="-150" y="360" as="targetPoint" />
          </mxGeometry>
        </mxCell>
        <mxCell id="wCs8_2-99c4EfU9t50Mr-23" value="" style="endArrow=none;html=1;rounded=0;exitX=1;exitY=0.5;exitDx=0;exitDy=0;entryX=0;entryY=0.5;entryDx=0;entryDy=0;" edge="1" parent="1" source="wCs8_2-99c4EfU9t50Mr-15" target="wCs8_2-99c4EfU9t50Mr-21">
          <mxGeometry width="50" height="50" relative="1" as="geometry">
            <mxPoint x="-210" y="350" as="sourcePoint" />
            <mxPoint x="-160" y="300" as="targetPoint" />
          </mxGeometry>
        </mxCell>
        <mxCell id="wCs8_2-99c4EfU9t50Mr-24" value="&lt;font style=&quot;font-size: 14px;&quot;&gt;&lt;font style=&quot;&quot;&gt;teached&lt;/font&gt; at&lt;/font&gt;" style="rhombus;whiteSpace=wrap;html=1;" vertex="1" parent="1">
          <mxGeometry x="370" y="340" width="93" height="70" as="geometry" />
        </mxCell>
        <mxCell id="wCs8_2-99c4EfU9t50Mr-25" value="" style="endArrow=none;html=1;rounded=0;entryX=0;entryY=0.5;entryDx=0;entryDy=0;exitX=1;exitY=0.5;exitDx=0;exitDy=0;" edge="1" parent="1" source="wCs8_2-99c4EfU9t50Mr-24" target="YIDH0FeiLAt5y91rJyF4-37">
          <mxGeometry width="50" height="50" relative="1" as="geometry">
            <mxPoint x="390" y="400" as="sourcePoint" />
            <mxPoint x="440" y="350" as="targetPoint" />
          </mxGeometry>
        </mxCell>
        <mxCell id="wCs8_2-99c4EfU9t50Mr-27" value="&lt;font style=&quot;font-size: 18px;&quot;&gt;M&lt;/font&gt;" style="text;html=1;align=center;verticalAlign=middle;resizable=0;points=[];autosize=1;strokeColor=none;fillColor=none;" vertex="1" parent="1">
          <mxGeometry x="335" y="337.5" width="40" height="40" as="geometry" />
        </mxCell>
        <mxCell id="wCs8_2-99c4EfU9t50Mr-28" value="&lt;font style=&quot;font-size: 18px;&quot;&gt;M&lt;/font&gt;" style="text;html=1;align=center;verticalAlign=middle;resizable=0;points=[];autosize=1;strokeColor=none;fillColor=none;" vertex="1" parent="1">
          <mxGeometry x="459.5" y="340.5" width="40" height="40" as="geometry" />
        </mxCell>
        <mxCell id="wCs8_2-99c4EfU9t50Mr-29" value="" style="endArrow=none;html=1;rounded=0;entryX=0.984;entryY=0.032;entryDx=0;entryDy=0;entryPerimeter=0;edgeStyle=orthogonalEdgeStyle;exitX=0.5;exitY=0;exitDx=0;exitDy=0;" edge="1" parent="1" target="YIDH0FeiLAt5y91rJyF4-73">
          <mxGeometry width="50" height="50" relative="1" as="geometry">
            <mxPoint x="-59.24" y="163" as="sourcePoint" />
            <mxPoint x="205.76" y="263" as="targetPoint" />
            <Array as="points">
              <mxPoint x="-44" y="163" />
              <mxPoint x="-44" y="113" />
              <mxPoint x="246" y="113" />
              <mxPoint x="246" y="100" />
              <mxPoint x="254" y="100" />
            </Array>
          </mxGeometry>
        </mxCell>
        <mxCell id="wCs8_2-99c4EfU9t50Mr-30" value="" style="endArrow=none;html=1;rounded=0;exitX=0.438;exitY=0.143;exitDx=0;exitDy=0;exitPerimeter=0;" edge="1" parent="1" source="YIDH0FeiLAt5y91rJyF4-45">
          <mxGeometry width="50" height="50" relative="1" as="geometry">
            <mxPoint x="270" y="180" as="sourcePoint" />
            <mxPoint x="270" y="110" as="targetPoint" />
          </mxGeometry>
        </mxCell>
        <mxCell id="wCs8_2-99c4EfU9t50Mr-31" value="" style="endArrow=none;html=1;rounded=0;entryX=1.05;entryY=0.925;entryDx=0;entryDy=0;entryPerimeter=0;exitX=0.833;exitY=0.607;exitDx=0;exitDy=0;exitPerimeter=0;" edge="1" parent="1" source="YIDH0FeiLAt5y91rJyF4-63" target="YIDH0FeiLAt5y91rJyF4-114">
          <mxGeometry width="50" height="50" relative="1" as="geometry">
            <mxPoint x="160" y="430" as="sourcePoint" />
            <mxPoint x="210" y="380" as="targetPoint" />
          </mxGeometry>
        </mxCell>
        <mxCell id="wCs8_2-99c4EfU9t50Mr-32" value="" style="endArrow=none;html=1;rounded=0;entryX=1.035;entryY=0.424;entryDx=0;entryDy=0;entryPerimeter=0;edgeStyle=orthogonalEdgeStyle;exitX=0.5;exitY=1;exitDx=0;exitDy=0;" edge="1" parent="1" source="YIDH0FeiLAt5y91rJyF4-50" target="YIDH0FeiLAt5y91rJyF4-112">
          <mxGeometry width="50" height="50" relative="1" as="geometry">
            <mxPoint x="-20" y="510" as="sourcePoint" />
            <mxPoint x="210" y="440" as="targetPoint" />
            <Array as="points">
              <mxPoint x="-20" y="505" />
              <mxPoint x="-20" y="580" />
              <mxPoint x="241" y="580" />
            </Array>
          </mxGeometry>
        </mxCell>
        <mxCell id="wCs8_2-99c4EfU9t50Mr-33" value="" style="endArrow=none;html=1;rounded=0;exitX=1;exitY=0.75;exitDx=0;exitDy=0;" edge="1" parent="1" source="wCs8_2-99c4EfU9t50Mr-15">
          <mxGeometry width="50" height="50" relative="1" as="geometry">
            <mxPoint x="160" y="490" as="sourcePoint" />
            <mxPoint x="-260" y="369" as="targetPoint" />
          </mxGeometry>
        </mxCell>
        <mxCell id="wCs8_2-99c4EfU9t50Mr-34" value="" style="endArrow=none;html=1;rounded=0;entryX=0.909;entryY=1.066;entryDx=0;entryDy=0;entryPerimeter=0;exitX=-0.07;exitY=0.909;exitDx=0;exitDy=0;exitPerimeter=0;" edge="1" parent="1" source="YIDH0FeiLAt5y91rJyF4-84" target="YIDH0FeiLAt5y91rJyF4-27">
          <mxGeometry width="50" height="50" relative="1" as="geometry">
            <mxPoint x="320" y="410" as="sourcePoint" />
            <mxPoint x="210" y="390" as="targetPoint" />
          </mxGeometry>
        </mxCell>
        <mxCell id="wCs8_2-99c4EfU9t50Mr-36" value="&lt;font style=&quot;font-size: 18px;&quot;&gt;Registered&lt;/font&gt;" style="rhombus;whiteSpace=wrap;html=1;" vertex="1" parent="1">
          <mxGeometry x="256" y="830" width="114" height="60" as="geometry" />
        </mxCell>
        <mxCell id="wCs8_2-99c4EfU9t50Mr-37" value="" style="endArrow=none;html=1;rounded=0;entryX=0.889;entryY=1.035;entryDx=0;entryDy=0;entryPerimeter=0;edgeStyle=orthogonalEdgeStyle;" edge="1" parent="1" target="YIDH0FeiLAt5y91rJyF4-37">
          <mxGeometry width="50" height="50" relative="1" as="geometry">
            <mxPoint x="370" y="860" as="sourcePoint" />
            <mxPoint x="140" y="550" as="targetPoint" />
          </mxGeometry>
        </mxCell>
        <mxCell id="wCs8_2-99c4EfU9t50Mr-38" value="" style="endArrow=none;html=1;rounded=0;edgeStyle=orthogonalEdgeStyle;exitX=0;exitY=0.5;exitDx=0;exitDy=0;entryX=0.25;entryY=1;entryDx=0;entryDy=0;" edge="1" parent="1" source="wCs8_2-99c4EfU9t50Mr-36" target="YIDH0FeiLAt5y91rJyF4-32">
          <mxGeometry width="50" height="50" relative="1" as="geometry">
            <mxPoint x="90" y="600" as="sourcePoint" />
            <mxPoint x="140" y="550" as="targetPoint" />
          </mxGeometry>
        </mxCell>
        <mxCell id="wCs8_2-99c4EfU9t50Mr-39" value="" style="endArrow=none;html=1;rounded=0;entryX=0.837;entryY=1.138;entryDx=0;entryDy=0;entryPerimeter=0;edgeStyle=orthogonalEdgeStyle;exitX=0.904;exitY=0.4;exitDx=0;exitDy=0;exitPerimeter=0;" edge="1" parent="1" source="wCs8_2-99c4EfU9t50Mr-36" target="YIDH0FeiLAt5y91rJyF4-37">
          <mxGeometry width="50" height="50" relative="1" as="geometry">
            <mxPoint x="380" y="850" as="sourcePoint" />
            <mxPoint x="140" y="550" as="targetPoint" />
          </mxGeometry>
        </mxCell>
        <mxCell id="wCs8_2-99c4EfU9t50Mr-40" value="&lt;font style=&quot;font-size: 24px;&quot;&gt;1&lt;/font&gt;" style="text;html=1;align=center;verticalAlign=middle;resizable=0;points=[];autosize=1;strokeColor=none;fillColor=none;rotation=0;" vertex="1" parent="1">
          <mxGeometry x="-182" y="326" width="40" height="40" as="geometry" />
        </mxCell>
        <mxCell id="wCs8_2-99c4EfU9t50Mr-41" value="&lt;font style=&quot;font-size: 24px;&quot;&gt;1&lt;/font&gt;" style="text;html=1;align=center;verticalAlign=middle;resizable=0;points=[];autosize=1;strokeColor=none;fillColor=none;rotation=0;" vertex="1" parent="1">
          <mxGeometry x="-340" y="323.5" width="40" height="40" as="geometry" />
        </mxCell>
        <mxCell id="wCs8_2-99c4EfU9t50Mr-42" value="&lt;font style=&quot;font-size: 18px;&quot;&gt;M&lt;/font&gt;" style="text;html=1;align=center;verticalAlign=middle;resizable=0;points=[];autosize=1;strokeColor=none;fillColor=none;" vertex="1" parent="1">
          <mxGeometry x="630" y="394" width="40" height="40" as="geometry" />
        </mxCell>
        <mxCell id="wCs8_2-99c4EfU9t50Mr-43" value="&lt;font style=&quot;font-size: 24px;&quot;&gt;1&lt;/font&gt;" style="text;html=1;align=center;verticalAlign=middle;resizable=0;points=[];autosize=1;strokeColor=none;fillColor=none;rotation=0;" vertex="1" parent="1">
          <mxGeometry x="-110" y="377.5" width="40" height="40" as="geometry" />
        </mxCell>
        <mxCell id="wCs8_2-99c4EfU9t50Mr-44" value="&lt;font style=&quot;font-size: 14px;&quot;&gt;Grades&lt;/font&gt;" style="rounded=0;whiteSpace=wrap;html=1;" vertex="1" parent="1">
          <mxGeometry x="875" y="180" width="120" height="45" as="geometry" />
        </mxCell>
        <mxCell id="wCs8_2-99c4EfU9t50Mr-48" value="&lt;u&gt;Id&lt;/u&gt;" style="html=1;overflow=block;blockSpacing=1;whiteSpace=wrap;ellipse;fontSize=16.7;fontColor=#3a414a;spacing=3.8;strokeColor=#3a414a;strokeOpacity=100;rounded=1;absoluteArcSize=1;arcSize=9;strokeWidth=0.8;lucidId=wKf7c6uQtoMl;" vertex="1" parent="1">
          <mxGeometry x="860" y="104" width="65" height="44" as="geometry" />
        </mxCell>
        <mxCell id="wCs8_2-99c4EfU9t50Mr-49" value="" style="endArrow=none;html=1;rounded=0;entryX=0.139;entryY=0.056;entryDx=0;entryDy=0;entryPerimeter=0;" edge="1" parent="1" source="wCs8_2-99c4EfU9t50Mr-48" target="wCs8_2-99c4EfU9t50Mr-44">
          <mxGeometry width="50" height="50" relative="1" as="geometry">
            <mxPoint x="880" y="150" as="sourcePoint" />
            <mxPoint x="870" y="170" as="targetPoint" />
          </mxGeometry>
        </mxCell>
        <mxCell id="wCs8_2-99c4EfU9t50Mr-50" value="grade" style="html=1;overflow=block;blockSpacing=1;whiteSpace=wrap;ellipse;fontSize=16.7;fontColor=#3a414a;spacing=3.8;strokeColor=#3a414a;strokeOpacity=100;rounded=1;absoluteArcSize=1;arcSize=9;strokeWidth=0.8;lucidId=wKf7c6uQtoMl;" vertex="1" parent="1">
          <mxGeometry x="930" y="106" width="65" height="44" as="geometry" />
        </mxCell>
        <mxCell id="wCs8_2-99c4EfU9t50Mr-51" value="grade points" style="html=1;overflow=block;blockSpacing=1;whiteSpace=wrap;ellipse;fontSize=16.7;fontColor=#3a414a;spacing=3.8;strokeColor=#3a414a;strokeOpacity=100;rounded=1;absoluteArcSize=1;arcSize=9;strokeWidth=0.8;lucidId=wKf7c6uQtoMl;" vertex="1" parent="1">
          <mxGeometry x="1010" y="108" width="65" height="44" as="geometry" />
        </mxCell>
        <mxCell id="wCs8_2-99c4EfU9t50Mr-52" value="" style="endArrow=none;html=1;rounded=0;exitX=0.302;exitY=1.037;exitDx=0;exitDy=0;entryX=0.61;entryY=0.004;entryDx=0;entryDy=0;exitPerimeter=0;entryPerimeter=0;" edge="1" parent="1" source="wCs8_2-99c4EfU9t50Mr-50" target="wCs8_2-99c4EfU9t50Mr-44">
          <mxGeometry width="50" height="50" relative="1" as="geometry">
            <mxPoint x="672" y="169" as="sourcePoint" />
            <mxPoint x="640" y="215" as="targetPoint" />
          </mxGeometry>
        </mxCell>
        <mxCell id="wCs8_2-99c4EfU9t50Mr-53" value="" style="endArrow=none;html=1;rounded=0;exitX=0;exitY=1;exitDx=0;exitDy=0;entryX=1;entryY=0.111;entryDx=0;entryDy=0;entryPerimeter=0;" edge="1" parent="1" source="wCs8_2-99c4EfU9t50Mr-51" target="wCs8_2-99c4EfU9t50Mr-44">
          <mxGeometry width="50" height="50" relative="1" as="geometry">
            <mxPoint x="960" y="162" as="sourcePoint" />
            <mxPoint x="943" y="185" as="targetPoint" />
          </mxGeometry>
        </mxCell>
        <mxCell id="wCs8_2-99c4EfU9t50Mr-54" value="" style="endArrow=none;html=1;rounded=0;entryX=0;entryY=0.5;entryDx=0;entryDy=0;exitX=1;exitY=0.5;exitDx=0;exitDy=0;" edge="1" parent="1" source="YIDH0FeiLAt5y91rJyF4-48" target="wCs8_2-99c4EfU9t50Mr-44">
          <mxGeometry width="50" height="50" relative="1" as="geometry">
            <mxPoint x="286" y="360" as="sourcePoint" />
            <mxPoint x="286" y="260" as="targetPoint" />
          </mxGeometry>
        </mxCell>
        <mxCell id="wCs8_2-99c4EfU9t50Mr-55" value="&lt;font style=&quot;font-size: 18px;&quot;&gt;M&lt;/font&gt;" style="text;html=1;align=center;verticalAlign=middle;resizable=0;points=[];autosize=1;strokeColor=none;fillColor=none;" vertex="1" parent="1">
          <mxGeometry x="820" y="160" width="40" height="40" as="geometry" />
        </mxCell>
      </root>
    </mxGraphModel>
  </diagram>
</mxfile>
